<?xml version="1.0" encoding="iso-8859-1"?>
<!-- Generator: Adobe Illustrator 19.0.0, SVG Export Plug-In . SVG Version: 6.00 Build 0)  -->
<svg version="1.1" id="Layer_1" xmlns="http://www.w3.org/2000/svg" xmlns:xlink="http://www.w3.org/1999/xlink" x="0px" y="0px"
	 viewBox="0 0 512 512" style="enable-background:new 0 0 512 512;" xml:space="preserve">
<g>
	<g>
		<path d="M469.328,289.504v-1.5v-21.336c0-117.82-95.516-213.328-213.328-213.328c-117.828,0-213.328,95.508-213.328,213.328
			v21.336v1.5C18.328,296.41,0,326.551,0,362.66c0,36.125,18.328,66.266,42.672,73.188v1.5c0,11.781,9.547,21.312,21.328,21.312
			h42.672c11.781,0,21.328-9.531,21.328-21.312V288.004c0-11.781-9.547-21.336-21.328-21.336H64c0-25.93,5.078-51.07,15.078-74.727
			c9.672-22.859,23.516-43.398,41.156-61.039c2.531-2.523,5.109-4.961,7.75-7.328l30.234,30.227
			c26.203-22.719,60.375-36.461,97.781-36.461c37.391,0,71.578,13.742,97.781,36.461l30.234-30.227
			c2.641,2.367,5.219,4.805,7.75,7.328c17.641,17.641,31.484,38.18,41.156,61.039c10,23.656,15.078,48.797,15.078,74.727h-42.672
			c-11.781,0-21.328,9.555-21.328,21.336v149.344c0,11.781,9.547,21.312,21.328,21.312H448c11.781,0,21.328-9.531,21.328-21.312
			v-1.5C493.672,428.926,512,398.785,512,362.66C512,326.551,493.672,296.41,469.328,289.504z M42.672,363.348v49.281
			c-4.344-2.781-7.672-6.734-9.688-9.563c-7.406-10.359-11.656-25.094-11.656-40.406c0-15.297,4.25-30.031,11.656-40.391
			c2.016-2.828,5.344-6.766,9.688-9.562V363.348z M106.672,288.004v21.344c-5.891,0-10.672,4.766-10.672,10.656
			s4.781,10.656,10.672,10.656v21.344c-5.891,0-10.672,4.781-10.672,10.656c0,5.906,4.781,10.688,10.672,10.688v21.312
			c-5.891,0-10.672,4.781-10.672,10.688c0,5.875,4.781,10.656,10.672,10.656v21.344H64v-74v-75.344H106.672z M351.922,125.488
			c-10.969-7.477-22.766-13.633-35.25-18.375c-19.36-7.375-39.781-11.109-60.672-11.109s-41.312,3.734-60.672,11.109
			c-12.484,4.742-24.281,10.898-35.25,18.375l-15.328-15.32c0.219-0.156,0.422-0.305,0.609-0.453
			c11.188-7.906,23.188-14.586,35.906-19.969c23.656-10,48.797-15.078,74.734-15.078c25.922,0,51.078,5.078,74.734,15.078
			c12.719,5.391,24.734,12.078,35.922,19.984c0.188,0.141,0.375,0.289,0.594,0.438L351.922,125.488z M448,363.348v74h-42.672
			v-21.344c5.891,0,10.672-4.781,10.672-10.656c0-5.906-4.781-10.688-10.672-10.688v-21.312c5.891,0,10.672-4.781,10.672-10.688
			c0-5.875-4.781-10.656-10.672-10.656V330.66c5.891,0,10.672-4.766,10.672-10.656s-4.781-10.656-10.672-10.656v-21.344H448V363.348
			z M479.016,403.066c-2.016,2.829-5.344,6.782-9.688,9.563v-49.281v-50.641c4.344,2.797,7.672,6.734,9.688,9.562
			c7.406,10.359,11.656,25.094,11.656,40.391C490.672,377.972,486.422,392.707,479.016,403.066z"/>
	</g>
</g>
<g>
</g>
<g>
</g>
<g>
</g>
<g>
</g>
<g>
</g>
<g>
</g>
<g>
</g>
<g>
</g>
<g>
</g>
<g>
</g>
<g>
</g>
<g>
</g>
<g>
</g>
<g>
</g>
<g>
</g>
</svg>
