<svg id="icons" enable-background="new 0 0 64 64" height="512" viewBox="0 0 64 64" width="512" xmlns="http://www.w3.org/2000/svg"><g><path d="m46.992 35h-32c-.553 0-1 .447-1 1v15 3 3 3c0 .553.447 1 1 1h32c.553 0 1-.447 1-1v-3-3-3-15c0-.553-.447-1-1-1zm-27.101 2h7.102v13h-7.102c-.398-1.956-1.942-3.5-3.898-3.898v-5.203c1.955-.399 3.499-1.943 3.898-3.899zm-3.899 11.185c.848.302 1.514.968 1.815 1.815h-1.815zm11 3.815v1h-11v-1zm0 3v1h-11v-1zm-11 3h11v1h-11zm13-7v-14h4v14 8h-4zm17-10.101v5.2c-1.957.398-3.501 1.943-3.899 3.9h-7.101v-12.999h7.1c.398 1.957 1.943 3.501 3.9 3.899zm-11 15.101v-1h11v1zm0-3v-1h11v1zm11-3h-1.816c.302-.848.969-1.516 1.816-1.817zm-11 8h11v1h-11zm11-19.184c-.848-.302-1.516-.969-1.817-1.816h1.817zm-28.184-1.816c-.302.848-.968 1.514-1.815 1.815v-1.815z"/><path d="m29.992 52h1.896c.553 0 1-.447 1-1s-.447-1-1-1h-1.896c-.553 0-1 .447-1 1s.447 1 1 1z"/><path d="m63 14.001h-2.002v-7.001c0-2.206-1.794-4-4-4-1.199 0-2.265.542-2.998 1.38-.733-.838-1.799-1.38-2.998-1.38-2.206 0-4 1.794-4 4v7.001h-30.002v-7.001c0-2.206-1.794-4-4-4-1.199 0-2.265.542-2.998 1.38-.733-.838-1.799-1.38-2.998-1.38-2.206 0-4 1.794-4 4v7.001h-2.004c-.553 0-1 .448-1 1v6c0 .552.447 1 1 1h2.004v7.005.001s0 0 0 .001c0 2.205 1.794 3.999 3.998 3.999 1.199 0 2.265-.542 2.998-1.381.733.839 1.8 1.381 3 1.381 2.199 0 3.988-1.785 3.996-3.983 0-.006.004-.011.004-.018v-7.004h30.002v7.004.001s0 0 0 .001c0 2.205 1.794 3.999 3.998 3.999 1.199 0 2.265-.542 2.998-1.381.733.839 1.8 1.381 3 1.381 2.199 0 3.988-1.785 3.996-3.983 0-.006.004-.011.004-.018v-7.005h2.002c.553 0 1-.448 1-1v-6c0-.552-.447-1-1-1zm-61 6v-4h1.004v4zm5.002 11.006c-1.102 0-1.998-.897-1.998-1.999 0 0 0 0 0-.001s0 0 0-.001v-8.005-6-8.001c0-1.103.897-2 2-2 1.096 0 1.987.887 1.998 1.981 0 .007-.002.013-.002.019v22.006.001s0 0 0 .001c0 1.102-.896 1.999-1.998 1.999zm5.998 0c-1.103 0-2-.897-2-1.999 0 0 0 0 0-.001s0 0 0-.001v-21.986c0-.007.004-.013.004-.02 0-.006-.002-.013-.002-.019.011-1.094.902-1.981 1.998-1.981 1.103 0 2 .897 2 2v7.991c0 .003-.002.006-.002.01v6.001c0 .003.002.006.002.01v7.986c0 .003-.002.006-.002.01 0 1.102-.896 1.999-1.998 1.999zm4-11.005v-4.001h30.002v4.001zm34 11.005c-1.102 0-1.998-.897-1.998-1.999 0 0 0 0 0-.001s0 0 0-.001v-8.004-6.001-8.001c0-1.103.897-2 2-2 1.096 0 1.987.887 1.998 1.981 0 .007-.002.013-.002.019v22.006.001s0 0 0 .001c0 1.102-.896 1.999-1.998 1.999zm5.998 0c-1.103 0-2-.897-2-1.999 0 0 0 0 0-.001s0 0 0-.001v-21.986c0-.007.004-.013.004-.02 0-.006-.002-.012-.002-.019.011-1.094.902-1.981 1.998-1.981 1.103 0 2 .897 2 2v7.991c0 .003-.002.006-.002.01v6c0 .003.002.006.002.01v7.987c0 .003-.002.006-.002.01 0 1.102-.896 1.999-1.998 1.999zm5.002-11.006h-1.002v-4h1.002z"/></g></svg>