<svg id="icons" enable-background="new 0 0 64 64" height="512" viewBox="0 0 64 64" width="512" xmlns="http://www.w3.org/2000/svg"><path d="m62 20.682v-.183c0-.002-.001-.004-.001-.007-.004-8.818-7.18-15.993-16-15.993h-27.999c-8.822 0-16 7.178-16 16v.183c-1.161.414-2 1.514-2 2.815v4.001c0 1.654 1.346 3 3 3h12c1.654 0 3-1.346 3-3v-4.001c0-1.302-.839-2.401-2-2.815v-.183c0-1.103.897-2 2-2h1.526c.979 2.757 3.26 4.895 6.104 5.674-3.952 2.232-6.63 6.467-6.63 11.32 0 .002.001.004.001.006s-.001.004-.001.006c0 2.748-2.229 4.982-4.973 4.998-.011 0-.019-.006-.029-.006-3.859 0-7 3.141-7 7v3.188c-1.16.415-1.998 1.514-1.998 2.816v3c0 1.654 1.346 3 3 3h48c1.654 0 3-1.346 3-3v-3c0-1.302-.838-2.4-1.998-2.815v-3.188c0-3.859-3.141-7-7-7-.011 0-.02.006-.029.006-2.744-.017-4.973-2.251-4.973-4.999 0-.002-.001-.004-.001-.006s.001-.004.001-.006c0-4.854-2.679-9.088-6.631-11.32 2.845-.779 5.126-2.917 6.104-5.674h1.525c1.103 0 2 .897 2 2 0 .002.001.003.001.005v.178c-1.161.414-2 1.514-2 2.815v4.001c0 1.654 1.346 3 3 3h12c1.654 0 3-1.346 3-3v-4.001c.001-1.302-.838-2.401-1.999-2.815zm-46 6.816c0 .552-.448 1-1 1h-12c-.552 0-1-.448-1-1v-4.001c0-.552.448-1 1-1h12c.552 0 1 .448 1 1zm41 29.003c0 .552-.448 1-1 1h-48c-.552 0-1-.448-1-1v-3c0-.552.448-1 1-1h48c.552 0 1 .448 1 1zm-14-21.008c0 .002.001.004.001.006s-.001.004-.001.006c0 3.86 3.141 7.001 7.001 7.001.011 0 .019-.006.029-.006 2.743.016 4.972 2.25 4.972 4.997v3.004h-46.003v-3.004c0-2.747 2.229-4.981 4.972-4.997.01 0 .019.006.029.006 3.86 0 7.001-3.141 7.001-7.001 0-.002-.001-.004-.001-.006s.001-.004.001-.006c0-6.02 4.862-10.92 10.864-10.993h.27c6.003.073 10.865 4.974 10.865 10.993zm-7.002-12.993h-3.863c-.045 0-.089-.007-.135-.007s-.09.007-.135.007h-3.863c-3.519 0-6.432-2.613-6.92-6h1.01c.081.479.214.939.401 1.373.006.014.013.024.019.037.93 2.111 3.039 3.59 5.49 3.59.002 0 .003-.001.005-.001h7.991c2.449 0 4.558-1.478 5.488-3.587.007-.014.014-.025.02-.04.188-.433.32-.894.4-1.372h1.012c-.488 3.387-3.401 6-6.92 6zm0-3.001h-7.996c-.001 0-.002.001-.003.001-1.005-.001-1.913-.387-2.616-1.001h13.232c-.703.614-1.612 1-2.617 1zm10.001-3h-1.06c.036-.328.059-.661.059-.999 0-.553-.447-1-1-1h-3.001c-.553 0-1 .447-1 1 0 .347-.059.678-.142.999h-15.711c-.083-.321-.142-.652-.142-.999 0-.553-.447-1-1-1h-3c-.553 0-1 .447-1 1 0 .338.022.671.059.999h-1.061c-2.205 0-3.999 1.793-4 3.998h-10c.001-7.719 6.281-13.998 14-13.998h27.999c7.719 0 13.999 6.279 14 13.998h-9.999c0-.003-.002-.005-.002-.008-.006-2.201-1.796-3.99-3.999-3.99zm16.001 10.999c0 .552-.448 1-1 1h-12c-.552 0-1-.448-1-1v-4.001c0-.552.448-1 1-1h12c.552 0 1 .448 1 1z"/><path d="m32.03 31.499c.552 0 1-.447 1-1s-.448-1-1-1h-.01c-.552 0-.994.447-.994 1s.452 1 1.004 1z"/><path d="m29.531 32.169c.552 0 1-.447 1-1s-.448-1-1-1h-.011c-.552 0-.994.447-.994 1s.453 1 1.005 1z"/><path d="m27.702 33.998c.552 0 1-.447 1-1s-.448-1-1-1h-.011c-.552 0-.994.447-.994 1s.452 1 1.005 1z"/><path d="m28.032 35.497c0-.553-.448-1-1-1h-.011c-.552 0-.994.447-.994 1s.452 1 1.005 1c.552 0 1-.447 1-1z"/><path d="m27.702 36.996h-.011c-.552 0-.994.447-.994 1s.452 1 1.005 1c.552 0 1-.447 1-1s-.448-1-1-1z"/><path d="m29.532 38.825h-.011c-.552 0-.994.447-.994 1s.452 1 1.005 1c.552 0 1-.447 1-1s-.448-1-1-1z"/><path d="m32.031 39.494h-.011c-.552 0-.994.447-.994 1s.452 1 1.005 1c.552 0 1-.447 1-1s-.448-1-1-1z"/><path d="m34.53 38.824h-.01c-.552 0-.994.447-.994 1s.452 1 1.005 1c.552 0 1-.447 1-1s-.449-1-1.001-1z"/><path d="m32.012 26.498c-3.212 0-6.203 1.725-7.808 4.501-2.479 4.297-1.002 9.812 3.295 12.293 1.367.789 2.921 1.206 4.491 1.206 3.211 0 6.2-1.725 7.803-4.501 1.202-2.08 1.521-4.506.899-6.828s-2.111-4.264-4.192-5.466c-1.366-.788-2.918-1.205-4.488-1.205zm6.749 7.189c.483 1.807.235 3.692-.7 5.311-1.246 2.159-3.572 3.501-6.07 3.501-1.22 0-2.428-.324-3.491-.938-3.342-1.93-4.491-6.219-2.563-9.561 1.248-2.159 3.575-3.501 6.075-3.501 1.22 0 2.426.324 3.488.938 1.618.933 2.776 2.443 3.261 4.25z"/><path d="m34.528 30.167h-.011c-.552 0-.994.447-.994 1s.452 1 1.005 1c.552 0 1-.447 1-1s-.448-1-1-1z"/></svg>